<svg id="Capa_1" enable-background="new 0 0 512 512" height="512" viewBox="0 0 512 512" width="512" xmlns="http://www.w3.org/2000/svg"><g><circle cx="382" cy="242" r="15"/><path d="m90.055 179.712c9.488 6.207 16.181 8.388 24.255 9.086v6.202c0 5.522 4.478 10 10 10s10-4.478 10-10v-7.162c16.616-4.215 27.266-18.408 29.619-32.403 3.026-18.005-6.751-34.277-24.329-40.491-1.741-.615-3.515-1.255-5.29-1.914v-32.312c3.055 1.127 4.645 2.657 4.872 2.888 3.638 4.104 9.909 4.513 14.051.905 4.164-3.627 4.6-9.944.972-14.108-3.323-3.815-10.186-8.596-19.895-10.277v-5.126c0-5.522-4.478-10-10-10s-10 4.478-10 10v6.223c-.616.163-1.238.337-1.865.526-11.853 3.57-20.705 13.689-23.102 26.407-2.199 11.671 1.59 22.963 9.889 29.472 3.917 3.073 8.691 5.889 15.078 8.817v42.231c-4.519-.636-7.906-2.167-13.306-5.7-4.622-3.025-10.82-1.728-13.843 2.894-3.023 4.621-1.728 10.818 2.894 13.842zm54.15-27.592c-.911 5.42-4.271 11.118-9.896 14.339v-32.121c10.822 4.558 10.553 13.873 9.896 17.782zm-32.631-50.228c-2.365-1.854-3.376-5.792-2.577-10.031.579-3.073 2.261-6.615 5.312-8.956v20.913c-.984-.631-1.902-1.273-2.735-1.926z"/><path d="m499.512 222.212-52.157-8.858c-6.553-10.19-14.288-19.58-23.101-28.044 5.066-25.339 18.718-47.878 38.968-64.078l3.148-2.518c4.975-3.979 6.893-10.667 4.784-16.679s-7.784-10.035-14.154-10.035h-40c-35.394 0-67.785 20.011-84.032 50.862-5.385-.573-10.724-.862-15.968-.862h-68.161c.76-5.561 1.161-11.234 1.161-17 0-68.925-56.075-125-125-125s-125 56.075-125 125c0 30.771 11.183 58.975 29.689 80.777-19.226 26.396-29.689 58.306-29.689 91.223 0 47.893 22.29 93.063 60 122.373v77.627c0 8.284 6.716 15 15 15h60c6.456 0 12.188-4.132 14.23-10.257l16.582-49.743h140.377l16.581 49.743c2.042 6.125 7.774 10.257 14.23 10.257h60c8.284 0 15-6.716 15-15v-77.625c20.627-16.02 36.759-36.837 47.141-60.85l43.492-17.623c5.662-2.295 9.367-7.793 9.367-13.902v-90c0-7.315-5.276-13.563-12.488-14.788zm-374.512-192.212c52.383 0 95 42.617 95 95s-42.617 95-95 95-95-42.617-95-95 42.617-95 95-95zm357 286.894-39.99 16.204c-3.854 1.562-6.887 4.653-8.374 8.537-8.994 23.479-24.632 43.49-45.223 57.866-4.019 2.806-6.413 7.397-6.413 12.299v70.2h-34.188l-16.581-49.743c-2.043-6.125-7.775-10.257-14.231-10.257h-162c-6.456 0-12.188 4.132-14.23 10.257l-16.582 49.743h-34.188v-70.2c0-4.901-2.395-9.493-6.413-12.299-33.555-23.429-53.587-61.746-53.587-102.501 0-25.354 7.698-49.967 21.896-70.67 20.572 14.883 45.83 23.67 73.104 23.67 52.308 0 97.207-32.301 115.82-78h76.18c7.247 0 14.767.696 22.35 2.07 7.161 1.303 14.221-2.732 16.744-9.56 9.396-25.426 33.873-42.51 60.906-42.51h3.777c-14.771 19.298-24.302 42.263-27.516 66.981-.65 5.004 1.258 9.999 5.079 13.294 10.767 9.284 19.782 20.133 26.797 32.243 2.234 3.858 6.071 6.523 10.468 7.27l46.395 7.879z"/></g></svg>